<mxfile host="app.diagrams.net" agent="Mozilla/5.0 (Windows NT 10.0; Win64; x64) AppleWebKit/537.36 (KHTML, like Gecko) Chrome/129.0.0.0 Safari/537.36" version="24.7.17">
  <diagram id="huNgc7fr_Cfrj01Rafau" name="Página-1">
    <mxGraphModel dx="1434" dy="780" grid="1" gridSize="10" guides="1" tooltips="1" connect="1" arrows="1" fold="1" page="1" pageScale="1" pageWidth="827" pageHeight="1169" math="0" shadow="0">
      <root>
        <mxCell id="0" />
        <mxCell id="1" parent="0" />
        <mxCell id="EHdGlWh1K1LTZDWw8WLE-3" value="" style="edgeStyle=orthogonalEdgeStyle;rounded=0;orthogonalLoop=1;jettySize=auto;html=1;" edge="1" parent="1" source="EHdGlWh1K1LTZDWw8WLE-1" target="EHdGlWh1K1LTZDWw8WLE-2">
          <mxGeometry relative="1" as="geometry" />
        </mxCell>
        <mxCell id="EHdGlWh1K1LTZDWw8WLE-1" value="Inicio" style="ellipse;whiteSpace=wrap;html=1;aspect=fixed;" vertex="1" parent="1">
          <mxGeometry x="350" y="70" width="80" height="80" as="geometry" />
        </mxCell>
        <mxCell id="EHdGlWh1K1LTZDWw8WLE-7" value="" style="edgeStyle=orthogonalEdgeStyle;rounded=0;orthogonalLoop=1;jettySize=auto;html=1;" edge="1" parent="1" source="EHdGlWh1K1LTZDWw8WLE-2" target="EHdGlWh1K1LTZDWw8WLE-6">
          <mxGeometry relative="1" as="geometry" />
        </mxCell>
        <mxCell id="EHdGlWh1K1LTZDWw8WLE-2" value="var ola = &quot;Olá mundo&quot;" style="shape=parallelogram;perimeter=parallelogramPerimeter;whiteSpace=wrap;html=1;fixedSize=1;" vertex="1" parent="1">
          <mxGeometry x="315" y="240" width="150" height="80" as="geometry" />
        </mxCell>
        <mxCell id="EHdGlWh1K1LTZDWw8WLE-11" value="" style="edgeStyle=orthogonalEdgeStyle;rounded=0;orthogonalLoop=1;jettySize=auto;html=1;" edge="1" parent="1" source="EHdGlWh1K1LTZDWw8WLE-6" target="EHdGlWh1K1LTZDWw8WLE-10">
          <mxGeometry relative="1" as="geometry" />
        </mxCell>
        <mxCell id="EHdGlWh1K1LTZDWw8WLE-6" value="ola" style="shape=parallelogram;perimeter=parallelogramPerimeter;whiteSpace=wrap;html=1;fixedSize=1;" vertex="1" parent="1">
          <mxGeometry x="315" y="400" width="150" height="80" as="geometry" />
        </mxCell>
        <mxCell id="EHdGlWh1K1LTZDWw8WLE-13" value="" style="edgeStyle=orthogonalEdgeStyle;rounded=0;orthogonalLoop=1;jettySize=auto;html=1;" edge="1" parent="1" source="EHdGlWh1K1LTZDWw8WLE-10" target="EHdGlWh1K1LTZDWw8WLE-12">
          <mxGeometry relative="1" as="geometry" />
        </mxCell>
        <mxCell id="EHdGlWh1K1LTZDWw8WLE-10" value="Olá mundo&amp;nbsp;" style="shape=document;whiteSpace=wrap;html=1;boundedLbl=1;" vertex="1" parent="1">
          <mxGeometry x="330" y="560" width="120" height="80" as="geometry" />
        </mxCell>
        <mxCell id="EHdGlWh1K1LTZDWw8WLE-12" value="fim&lt;div&gt;&lt;br&gt;&lt;/div&gt;" style="ellipse;whiteSpace=wrap;html=1;" vertex="1" parent="1">
          <mxGeometry x="350" y="720" width="80" height="80" as="geometry" />
        </mxCell>
      </root>
    </mxGraphModel>
  </diagram>
</mxfile>
